<?xml version="1.0" standalone="no"?>
<!DOCTYPE svg PUBLIC "-//W3C//DTD SVG 20010904//EN"
 "http://www.w3.org/TR/2001/REC-SVG-20010904/DTD/svg10.dtd">
<svg version="1.0" xmlns="http://www.w3.org/2000/svg"
 width="230.000000pt" height="240.000000pt" viewBox="0 0 230.000000 240.000000"
 preserveAspectRatio="xMidYMid meet">

<g transform="translate(0.000000,240.000000) scale(0.100000,-0.100000)"
fill="#000000" stroke="none">
<path d="M490 2214 c-30 -79 27 -206 114 -251 17 -9 60 -19 96 -23 62 -6 64
-7 37 -18 -16 -7 -62 -12 -104 -12 -67 0 -83 -4 -142 -35 -158 -84 -276 -201
-356 -355 -68 -132 -107 -299 -90 -387 l7 -38 33 70 c18 39 45 84 60 100 31
35 31 32 -16 -100 -28 -79 -33 -107 -37 -220 -4 -110 -1 -144 16 -213 25 -99
72 -195 123 -254 l38 -43 -10 40 c-11 51 -11 156 0 173 5 9 14 -9 25 -55 31
-123 90 -229 175 -313 85 -85 159 -128 271 -159 109 -31 124 -28 79 12 -41 36
-79 88 -79 108 0 8 9 4 23 -9 12 -11 49 -34 82 -50 180 -88 442 -105 582 -36
29 14 53 29 53 34 0 4 -15 11 -32 14 -58 11 -136 54 -189 103 -173 162 -185
419 -27 598 l30 35 -58 0 c-198 1 -386 140 -444 328 -11 35 -20 83 -19 106 0
38 1 36 19 -31 10 -39 26 -86 36 -105 106 -208 344 -298 594 -223 155 47 282
29 402 -55 100 -70 195 -75 268 -13 69 57 91 169 50 246 -11 20 -20 45 -20 54
0 10 -12 43 -26 73 l-27 55 -13 -70 c-13 -64 -12 -71 3 -82 15 -12 15 -13 -4
-13 -18 0 -23 9 -33 54 -18 87 -70 137 -70 67 0 -35 -28 -131 -39 -131 -4 0
-30 7 -57 15 -27 8 -103 23 -168 34 -123 21 -161 37 -175 74 -12 31 -4 35 16
8 15 -23 85 -60 111 -61 7 0 -3 15 -22 34 -32 29 -36 39 -36 82 0 83 52 167
145 239 19 15 19 15 -10 9 -55 -12 -110 -41 -147 -79 -46 -46 -49 -34 -7 23
19 26 51 51 87 69 52 26 66 28 157 26 55 -1 114 -6 130 -11 29 -8 30 -10 35
-86 l5 -77 35 23 c19 13 46 45 60 71 37 70 56 63 52 -19 l-4 -67 30 21 c16 12
35 36 42 54 7 18 25 53 41 78 31 51 63 163 55 194 -3 12 -32 45 -66 74 -33 29
-60 58 -60 63 0 6 27 -4 60 -22 33 -18 63 -29 66 -26 12 12 -18 47 -73 83 -93
62 -211 101 -339 113 -79 7 -140 20 -224 47 -147 48 -244 51 -390 11 -128 -35
-239 -47 -346 -36 -87 9 -239 44 -323 73 -54 20 -50 21 -61 -10z m990 -100
c49 -26 62 -42 55 -64 -6 -18 -12 -20 -58 -14 -79 9 -80 10 -74 49 5 28 3 35
-11 35 -15 0 -15 2 -2 10 17 10 52 4 90 -16z m135 -63 c19 -8 19 -8 -2 -19
-12 -7 -34 -12 -49 -12 -26 0 -27 0 -9 20 19 21 29 23 60 11z"/>
</g>
</svg>
