<?xml version="1.0" encoding="UTF-8" standalone="no"?>
<svg
   version="1.0"
   width="220.75935pt"
   height="213.81975pt"
   viewBox="0 0 220.75935 213.81975"
   preserveAspectRatio="xMidYMid"
   id="svg3"
   xml:space="preserve"
   xmlns="http://www.w3.org/2000/svg"
   xmlns:svg="http://www.w3.org/2000/svg"><defs
     id="defs3" /><path
     d="m 44.897047,2.427503 c -3,7.899999 2.7,20.599999 11.4,25.099999 1.7,0.9 6,1.900001 9.6,2.300001 6.2,0.6 6.4,0.7 3.7,1.8 -1.6,0.7 -6.2,1.2 -10.4,1.2 -6.7,0 -8.3,0.4 -14.2,3.5 -15.8,8.4 -27.6,20.1 -35.5999994,35.5 -6.8,13.2 -10.7,29.899997 -9.00000008,38.699997 l 0.70000008,3.8 3.3,-7 c 1.8,-3.9 4.5,-8.399996 5.9999994,-9.999996 3.1,-3.500001 3.1,-3.200001 -1.5999994,9.999996 -2.8,7.9 -3.3,10.7 -3.7,21.99999 -0.4,11 -0.1,14.4 1.6,21.3 2.5,9.9 7.1999994,19.5 12.2999994,25.4 l 3.8,4.3 -1,-4 c -1.1,-5.1 -1.1,-15.6 0,-17.3 0.5,-0.9 1.4,0.9 2.5,5.5 3.1,12.3 9,22.9 17.5,31.3 8.5,8.5 15.9,12.8 27.1,15.9 10.9,3.1 12.4,2.8 7.9,-1.2 -4.1,-3.6 -7.9,-8.8 -7.9,-10.8 0,-0.8 0.9,-0.4 2.3,0.9 1.2,1.1 4.9,3.4 8.2,5 18,8.8 44.200003,10.5 58.200003,3.6 2.9,-1.4 5.3,-2.9 5.3,-3.4 0,-0.4 -1.5,-1.1 -3.2,-1.4 -5.8,-1.1 -13.6,-5.4 -18.9,-10.3 -17.3,-16.2 -18.5,-41.9 -2.7,-59.8 l 3,-3.5 h -5.8 c -19.800003,-0.1 -38.600003,-13.99999 -44.400003,-32.799986 -1.1,-3.500001 -2,-8.300001 -1.9,-10.600001 0,-3.8 0.1,-3.6 1.9,3.1 1,3.9 2.6,8.600001 3.6,10.499997 10.6,20.79999 34.400003,29.79999 59.400003,22.29999 15.5,-4.69999 28.2,-2.9 40.2,5.5 10,7 19.5,7.5 26.8,1.3 6.9,-5.7 9.1,-16.89999 5,-24.59999 -1.1,-2 -2,-4.5 -2,-5.4 0,-0.999996 -1.2,-4.299997 -2.6,-7.299997 l -2.7,-5.5 -1.3,7 c -1.3,6.399997 -1.2,7.099997 0.3,8.199997 1.5,1.2 1.5,1.3 -0.4,1.3 -1.8,0 -2.3,-0.9 -3.3,-5.399996 -1.8,-8.700001 -7,-13.700001 -7,-6.700001 0,3.5 -2.8,13.099997 -3.9,13.099997 -0.4,0 -3,-0.7 -5.7,-1.5 -2.7,-0.8 -10.3,-2.3 -16.8,-3.399996 -12.3,-2.1 -16.1,-3.700001 -17.5,-7.400001 -1.2,-3.1 -0.4,-3.5 1.6,-0.8 1.5,2.3 8.5,6.000001 11.1,6.100001 0.7,0 -0.3,-1.500001 -2.2,-3.400001 -3.2,-2.9 -3.6,-3.9 -3.6,-8.2 0,-8.3 5.2,-16.7 14.5,-23.9 1.9,-1.5 1.9,-1.5 -1,-0.9 -5.5,1.2 -11,4.1 -14.7,7.9 -4.6,4.6 -4.9,3.4 -0.7,-2.3 1.9,-2.6 5.1,-5.1 8.7,-6.9 5.2,-2.6 6.6,-2.8 15.7,-2.6 5.5,0.1 11.4,0.6 13,1.1 2.9,0.8 3,1 3.5,8.6 l 0.5,7.7 3.5,-2.3 c 1.9,-1.3 4.6,-4.5 6,-7.1 3.7,-7 5.6,-6.3 5.2,1.9 l -0.4,6.7 3,-2.1 c 1.6,-1.2 3.5,-3.6 4.2,-5.4 0.7,-1.8 2.5,-5.3 4.1,-7.8 3.1,-5.1 6.3,-16.3 5.5,-19.4 -0.3,-1.2 -3.2,-4.5 -6.6,-7.4 -3.3,-2.900001 -6,-5.800001 -6,-6.300001 0,-0.6 2.7,0.4 6,2.2 3.3,1.800001 6.3,2.900001 6.6,2.600001 1.2,-1.2 -1.8,-4.700001 -7.3,-8.300001 -9.3,-6.2 -21.1,-10.1 -33.9,-11.3 -7.9,-0.7 -14,-1.9999987 -22.4,-4.699999 -14.7,-4.8 -24.4,-5.1 -39,-1.1 -12.8,3.5000003 -23.900003,4.6999993 -34.600003,3.6000003 -8.7,-0.9 -23.9,-4.4000003 -32.3,-7.3000003 -5.4,-2 -5,-2.1 -6.1,1 z m 99.000003,9.999999 c 4.9,2.6 6.2,4.2 5.5,6.4 -0.6,1.8 -1.2,2 -5.8,1.4 -7.9,-0.9 -8,-1 -7.4,-4.9 0.5,-2.8 0.3,-3.5 -1.1,-3.5 -1.5,0 -1.5,-0.2 -0.2,-1 1.7,-0.9999997 5.2,-0.4 9,1.6 z m 13.5,6.3 c 1.9,0.8 1.9,0.8 -0.2,1.9 -1.2,0.7 -3.4,1.2 -4.9,1.2 -2.6,0 -2.7,0 -0.9,-2 1.9,-2.1 2.9,-2.3 6,-1.1 z"
     id="path1-0"
     style="fill:#ffffff;fill-opacity:1;stroke:none;stroke-width:0.1" /></svg>
