<?xml version="1.0" encoding="UTF-8" standalone="no"?>
<svg
   version="1.0"
   width="540.73523pt"
   height="194.00842pt"
   viewBox="0 0 540.73523 194.00842"
   preserveAspectRatio="xMidYMid"
   id="svg3"
   sodipodi:docname="furia-logo.svg"
   xmlns:inkscape="http://www.inkscape.org/namespaces/inkscape"
   xmlns:sodipodi="http://sodipodi.sourceforge.net/DTD/sodipodi-0.dtd"
   xmlns="http://www.w3.org/2000/svg"
   xmlns:svg="http://www.w3.org/2000/svg">
  <defs
     id="defs3" />
  <sodipodi:namedview
     id="namedview3"
     pagecolor="#ffffff"
     bordercolor="#000000"
     borderopacity="0.25"
     inkscape:showpageshadow="2"
     inkscape:pageopacity="0.0"
     inkscape:pagecheckerboard="0"
     inkscape:deskcolor="#d1d1d1"
     inkscape:document-units="pt">
    <inkscape:page
       x="0"
       y="-7.9409339e-23"
       width="540.73523"
       height="194.00842"
       id="page2"
       margin="0"
       bleed="0" />
  </sodipodi:namedview>
  <g
     transform="matrix(0.1,0,0,-0.1,-51.397509,210.18771)"
     fill="#000000"
     stroke="none"
     id="g3"
     style="fill:#ffffff;fill-opacity:1">
    <path
       d="m 575,2091 c -3,-5 34,-50 81,-100 l 87,-91 -6,-48 c -12,-97 -63,-451 -81,-567 -8,-49 -18,-121 -21,-160 -3,-38 -12,-106 -20,-150 C 607,931 596,859 590,815 584,771 571,674 560,600 509,249 506,218 524,204 c 12,-8 74,-12 200,-13 223,-2 218,-5 236,119 24,163 40,286 58,436 10,87 23,159 31,168 11,14 40,16 195,16 130,0 187,4 199,13 13,9 22,44 34,137 9,69 17,148 17,175 l 1,50 -192,5 c -105,3 -195,8 -199,12 -3,4 -1,35 5,68 7,33 18,115 25,182 19,172 -3,160 313,156 168,-2 256,-7 263,-14 8,-8 8,-33 1,-90 -33,-244 -14,-679 40,-924 5,-25 16,-74 24,-110 22,-103 132,-366 173,-412 24,-28 49,-22 137,36 197,130 437,373 566,574 27,42 52,82 56,87 67,87 184,331 254,525 36,99 89,308 108,425 17,100 20,107 44,103 18,-2 23,-11 25,-48 2,-25 -4,-85 -12,-135 -9,-49 -20,-124 -25,-165 -6,-41 -15,-106 -21,-145 -6,-38 -19,-133 -30,-210 -11,-77 -24,-174 -30,-215 -6,-41 -20,-138 -30,-215 -20,-146 -36,-257 -65,-459 -17,-115 -17,-119 0,-133 22,-15 358,-19 398,-4 31,12 34,20 47,143 14,142 65,482 78,528 7,23 13,25 74,28 57,2 70,0 88,-18 32,-32 30,-77 -26,-440 -8,-52 -17,-125 -21,-161 -5,-59 -3,-68 13,-76 20,-10 356,-16 387,-7 29,9 36,36 57,201 10,87 24,192 30,233 35,252 35,240 17,309 -20,74 -42,102 -104,132 -44,21 -49,39 -11,39 34,0 100,38 130,74 49,59 92,258 119,546 21,223 -27,305 -201,349 -83,21 -99,21 -700,19 l -614,-3 -8,-35 c -5,-19 -17,-82 -28,-140 -25,-136 -32,-163 -98,-360 -69,-210 -109,-306 -210,-508 -69,-139 -87,-115 -53,76 11,65 25,153 31,197 6,44 20,145 31,225 11,80 26,192 33,250 8,58 19,132 26,165 6,33 10,76 8,95 l -3,35 -917,3 c -562,1 -919,-2 -923,-7 z m 3169,-367 c 19,-19 19,-29 2,-164 -42,-318 -40,-313 -137,-318 -35,-2 -74,0 -87,3 -23,6 -24,9 -18,53 3,26 13,106 21,177 18,154 29,224 40,248 10,24 155,25 179,1 z"
       id="path1"
       style="fill:#ffffff;fill-opacity:1" />
    <path
       d="m 4220,2085 c 0,-8 35,-50 79,-92 86,-86 98,-108 82,-156 -6,-17 -15,-80 -21,-140 -6,-59 -13,-113 -15,-120 -3,-6 -14,-77 -26,-157 -19,-134 -25,-183 -59,-435 -6,-49 -19,-135 -27,-190 -8,-55 -22,-146 -29,-202 -23,-173 -43,-306 -50,-345 -6,-34 -4,-38 17,-45 13,-5 109,-6 213,-3 154,4 190,8 197,20 4,8 17,80 28,160 37,274 43,315 56,410 25,188 36,266 50,345 8,44 19,129 25,189 6,60 13,112 15,116 2,3 9,46 15,96 15,117 36,260 62,412 16,98 18,125 8,137 -19,23 -620,22 -620,0 z"
       id="path2"
       style="fill:#ffffff;fill-opacity:1" />
    <path
       d="m 5044,2089 c -3,-6 25,-43 66,-84 83,-84 82,-73 36,-235 -15,-52 -37,-126 -48,-165 -10,-38 -24,-83 -29,-100 -14,-41 -47,-154 -71,-245 -39,-146 -47,-176 -68,-245 -12,-38 -30,-101 -40,-140 -16,-62 -44,-162 -69,-250 -26,-90 -65,-228 -81,-285 -10,-36 -22,-77 -28,-91 -18,-46 -5,-49 210,-49 228,0 214,-6 242,110 29,118 45,172 57,186 9,11 43,14 140,14 152,0 138,17 142,-175 l 2,-130 199,-3 c 120,-1 203,1 209,7 14,14 9,1861 -5,1878 -14,17 -853,19 -864,2 z m 491,-453 c 4,-30 5,-59 1,-64 -3,-5 -6,-145 -6,-311 -1,-174 -6,-315 -12,-332 -11,-33 -41,-42 -132,-37 -77,4 -87,18 -63,90 16,51 34,119 63,238 7,30 23,89 35,130 11,41 29,107 39,145 10,39 23,86 28,105 6,19 13,47 16,63 10,43 24,31 31,-27 z"
       id="path3"
       style="fill:#ffffff;fill-opacity:1" />
  </g>
</svg>
